<?xml version="1.0" encoding="utf-8"?>
<!-- Generator: Adobe Illustrator 26.3.1, SVG Export Plug-In . SVG Version: 6.00 Build 0)  -->
<svg version="1.1" id="Ebene_1" xmlns="http://www.w3.org/2000/svg" xmlns:xlink="http://www.w3.org/1999/xlink" x="0px" y="0px"
	 viewBox="0 0 761.1 94.8" style="enable-background:new 0 0 761.1 94.8;" xml:space="preserve">
<style type="text/css">
	.st0{fill:#E9000E;}
	.st1{fill:#FDA700;}
	.st2{fill:#2B95F6;}
	.st3{fill:#A318F8;}
	.st4{fill:#17BBA9;}
</style>
<g>
	<polygon class="st0" points="567.2,4.7 546.2,40.8 525.3,4.7 472.8,94.8 514.7,94.8 577.4,94.8 619.2,94.8 	"/>
	<circle class="st1" cx="47.4" cy="47.4" r="47.4"/>
	<path class="st2" d="M385,94.8c26,0,47.1-21.1,47.1-47.1S411.1,0.6,385,0.6h-20l-54.3,94l66,0.2H385z"/>
	<polygon class="st3" points="152.8,94.8 262.3,94.8 207.6,0 	"/>
	<polygon class="st4" points="709,94.8 709,94.8 761.1,49.8 761.1,21 735,4.7 709,26.1 683,4.7 657,21 657,49.8 709,94.8 	"/>
</g>
</svg>
